<svg xmlns="http://www.w3.org/2000/svg" width="21" height="20" viewBox="0 0 21 20"><g fill="#FFF" fill-rule="nonzero"><path d="M16.266 9.964a3.344 3.344 0 0 1-2.003.664 3.344 3.344 0 0 1-2.003-.664 3.344 3.344 0 0 1-2.003.664c-.704 0-1.408-.221-2.003-.664a3.344 3.344 0 0 1-2.002.664c-.706 0-1.41-.222-2.003-.664a3.344 3.344 0 0 1-3.621.246v9.341c0 .248.2.449.449.449h7.075v-5.947c0-.248.2-.448.448-.448h3.314c.248 0 .449.2.449.448V20h7.075c.248 0 .448-.2.448-.449v-9.34a3.344 3.344 0 0 1-3.62-.247zM2.246 9.52c.875 0 1.632-.5 2.003-1.23a2.245 2.245 0 0 0 4.005 0 2.245 2.245 0 0 0 4.006 0 2.245 2.245 0 0 0 4.006 0 2.245 2.245 0 0 0 4.248-1.016c0-.408-1.67-6.254-1.67-6.254A1.375 1.375 0 0 0 17.515 0H3.042c-.62 0-1.163.414-1.326 1.012C1.644 1.275 0 6.856 0 7.274A2.246 2.246 0 0 0 2.246 9.52z"></path></g></svg>