<svg xmlns="http://www.w3.org/2000/svg" width="35px" height="35px" viewBox="0 0 35 35"><title>My Device</title><g id="Header-Navigation-Journey" stroke="none" stroke-width="1" fill="none" fill-rule="evenodd"><g id="01_Header-and-Navigation-My-Account" transform="translate(-973.000000, -444.000000)"><g id="Group-34" transform="translate(956.000000, 3.000000)"><g id="Group-10-Copy-5" transform="translate(17.000000, 436.000000)"><g id="My-Device" transform="translate(0.000000, 5.000000)"><rect id="Rectangle" x="0" y="0" width="35" height="35"></rect><g id="Group-31" transform="translate(3.000000, 6.000000)" stroke="#FFFFFF" stroke-linecap="round" stroke-linejoin="round"><path d="M4.48056258,1.77635684e-15 L23.1261062,1.77635684e-15 C23.6783909,1.67490378e-15 24.1261062,0.44771525 24.1261062,1 L24.1261062,17.0945796 C24.1261062,17.6468644 23.6783909,18.0945796 23.1261062,18.0945796 L1,18.0945796 C0.44771525,18.0945796 7.3376919e-16,17.6468644 0,17.0945796 L0,11.9194453 L0,11.9194453 L3.48056258,11.9194453 C4.03284733,11.9194453 4.48056258,11.4717301 4.48056258,10.9194453 L4.48056258,1.77635684e-15 L4.48056258,1.77635684e-15 Z" id="Rectangle" transform="translate(12.063053, 9.047290) rotate(180.000000) translate(-12.063053, -9.047290) "></path><line x1="16.0840708" y1="22.1155973" x2="8.0420354" y2="22.1155973" id="Path"></line><line x1="0" y1="13.0683075" x2="19.300885" y2="13.0683075" id="Path"></line><line x1="12.0630531" y1="18.0945796" x2="12.0630531" y2="22.1155973" id="Path"></line><g id="Group-28" transform="translate(19.645544, 6.175134)"><rect id="Rectangle" x="0" y="0" width="10.1806866" height="16.5436157" rx="1"></rect><line x1="0" y1="2.55540334" x2="10.1806866" y2="2.55540334" id="Path"></line><line x1="0" y1="14.0086757" x2="10.1806866" y2="14.0086757" id="Path"></line></g></g></g></g></g></g></g></svg>