<svg xmlns="http://www.w3.org/2000/svg" width="35px" height="35px" viewBox="0 0 35 35"><title>heart-straight</title><g id="Header-Navigation-Journey" stroke="none" stroke-width="1" fill="none" fill-rule="evenodd"><g id="01_Header-and-Navigation-My-Account" transform="translate(-973.000000, -374.000000)"><g id="Group-34" transform="translate(956.000000, 3.000000)"><g id="Group-10-Copy-4" transform="translate(17.000000, 368.000000)"><g id="heart-straight" transform="translate(0.000000, 3.000000)"><rect id="Rectangle" x="0" y="0" width="35" height="35"></rect><path d="M18.2733947,28.9682791 L29.3520295,17.889658 C32.0741545,15.1675357 32.4757576,10.6892283 29.8997016,7.82848555 C28.5956468,6.37612913 26.7518425,5.52377997 24.8006519,5.47130989 C22.8494613,5.41883981 20.9625132,6.17086412 19.5822881,7.55103672 L17.4999918,9.63331523 L15.702158,7.83547461 C12.9800398,5.11334551 8.50173105,4.71173828 5.64098691,7.28779297 C4.18863042,8.59184794 3.33628124,10.4356525 3.28381116,12.3868433 C3.23134107,14.3380342 3.98336541,16.2249824 5.36353809,17.6052078 L16.7265998,28.968275 C17.1537345,29.3954113 17.8462578,29.3954131 18.2733947,28.9682791 Z" id="Path" stroke="#FFFFFF" stroke-linecap="round" stroke-linejoin="round"></path></g></g></g></g></g></svg>