<svg xmlns="http://www.w3.org/2000/svg" xmlns:xlink="http://www.w3.org/1999/xlink" width="25" height="25" viewBox="0 0 25 25"><defs><path id="a" d="M0 0h25v25H0z"/></defs><g fill="none" fill-rule="evenodd"><mask id="b" fill="#fff"><use xlink:href="#a"/></mask><g fill="#FFF" mask="url(#b)"><path d="M22.656 3.125h-1.25A13.531 13.531 0 0 1 12.984.172a.781.781 0 0 0-.968 0 13.531 13.531 0 0 1-8.422 2.953h-1.25a.781.781 0 0 0-.782.781v6.563A15.102 15.102 0 0 0 12.273 25a.836.836 0 0 0 .454 0 15.102 15.102 0 0 0 10.71-14.531V3.906a.781.781 0 0 0-.78-.781zm-.781 7.344A13.539 13.539 0 0 1 12.5 23.437 13.54 13.54 0 0 1 3.125 10.47V4.687h.469A15.078 15.078 0 0 0 12.5 1.766a15.078 15.078 0 0 0 8.906 2.921h.469v5.782z"/></g><path fill="#FFF" d="m15.362 9-4.345 4.344-1.689-1.688L8 12.983 11.017 16l5.673-5.672L15.362 9z"/></g></svg>