<svg xmlns="http://www.w3.org/2000/svg" width="35px" height="35px" viewBox="0 0 35 35"><title>My Address</title><g id="Header-Navigation-Journey" stroke="none" stroke-width="1" fill="none" fill-rule="evenodd"><g id="01_Header-and-Navigation-My-Account" transform="translate(-973.000000, -172.000000)"><g id="Group-34" transform="translate(956.000000, 3.000000)"><g id="Group-10-Copy" transform="translate(17.000000, 164.000000)"><g id="My-Address" transform="translate(0.000000, 5.000000)"><rect id="Rectangle" x="0" y="0" width="35" height="35"></rect><circle id="Oval" stroke="#FFFFFF" stroke-linecap="round" stroke-linejoin="round" cx="18.59375" cy="15.3125" r="4.375"></circle><line x1="4.375" y1="14.7656318" x2="7.65625" y2="14.7656318" id="Path" stroke="#FFFFFF" stroke-linecap="round" stroke-linejoin="round"></line><line x1="4.375" y1="9.29688184" x2="7.65625" y2="9.29688184" id="Path" stroke="#FFFFFF" stroke-linecap="round" stroke-linejoin="round"></line><line x1="4.375" y1="20.2343818" x2="7.65625" y2="20.2343818" id="Path" stroke="#FFFFFF" stroke-linecap="round" stroke-linejoin="round"></line><line x1="4.375" y1="25.7031318" x2="7.65625" y2="25.7031318" id="Path" stroke="#FFFFFF" stroke-linecap="round" stroke-linejoin="round"></line><path d="M12.0308631,22.9684656 C13.580284,20.9030707 16.0115911,19.6875579 18.5935596,19.6874974 C21.1755281,19.6874368 23.6068923,20.9028357 25.15641,22.968158" id="Path" stroke="#FFFFFF" stroke-linecap="round" stroke-linejoin="round"></path><path d="M11.46875,6.5625 L25.71875,6.5625 C29.0324585,6.5625 31.71875,9.2487915 31.71875,12.5625 L31.71875,22.4375 C31.71875,25.7512085 29.0324585,28.4375 25.71875,28.4375 L11.46875,28.4375 C8.1550415,28.4375 5.46875,25.7512085 5.46875,22.4375 L5.46875,12.5625 C5.46875,9.2487915 8.1550415,6.5625 11.46875,6.5625 Z" id="Rectangle" stroke="#FFFFFF" stroke-linecap="round" stroke-linejoin="round" transform="translate(18.593750, 17.500000) rotate(90.000000) translate(-18.593750, -17.500000) "></path></g></g></g></g></g></svg>