<svg xmlns="http://www.w3.org/2000/svg" width="35px" height="35px" viewBox="0 0 35 35"><title>My Order</title><g id="Header-Navigation-Journey" stroke="none" stroke-width="1" fill="none" fill-rule="evenodd"><g id="01_Header-and-Navigation-My-Account" transform="translate(-973.000000, -240.000000)"><g id="Group-34" transform="translate(956.000000, 3.000000)"><g id="Group-10-Copy-2" transform="translate(17.000000, 232.000000)"><g id="My-Order" transform="translate(0.000000, 5.000000)"><rect id="Rectangle" x="0" y="0" width="35" height="35"></rect><path d="M30.625,24.2431355 L30.625,10.7568645 C30.625,10.361722 30.4118698,9.99730234 30.0674732,9.8035793 L18.0362232,3.03600117 C17.7032709,2.84871549 17.2967291,2.84871549 16.9637768,3.03600117 L4.93252676,9.8035793 C4.58813025,9.99730234 4.375,10.361722 4.375,10.7568645 L4.375,24.2431355 C4.375,24.638278 4.58813025,25.0026977 4.93252676,25.1964207 L16.9637768,31.9639988 C17.2967291,32.1512845 17.7032709,32.1512845 18.0362232,31.9639988 L30.0674732,25.1964207 C30.4118698,25.0026977 30.625,24.638278 30.625,24.2431355 Z" id="Path" stroke="#FFFFFF" stroke-linecap="round" stroke-linejoin="round"></path><polyline id="Path" stroke="#FFFFFF" stroke-linecap="round" stroke-linejoin="round" points="24.2022266 20.8511133 24.2022266 13.7417383 10.9375 6.42578125"></polyline><polyline id="Path" stroke="#FFFFFF" stroke-linecap="round" stroke-linejoin="round" points="30.4741992 10.2029102 17.6297461 17.5 4.52648438 10.201543"></polyline><line x1="17.6668763" y1="17.5" x2="17.502588" y2="32.104476" id="Path" stroke="#FFFFFF" stroke-linecap="round" stroke-linejoin="round"></line></g></g></g></g></g></svg>