<svg xmlns="http://www.w3.org/2000/svg" width="35px" height="35px" viewBox="0 0 35 35"><title>My Services</title><g id="Header-Navigation-Journey" stroke="none" stroke-width="1" fill="none" fill-rule="evenodd"><g id="01_Header-and-Navigation-My-Account" transform="translate(-973.000000, -517.000000)"><g id="Group-34" transform="translate(956.000000, 3.000000)"><g id="Group-10-Copy-6" transform="translate(17.000000, 504.000000)"><g id="My-Services" transform="translate(0.000000, 10.000000)"><rect id="Rectangle" x="0" y="0" width="35" height="35"></rect><g id="Group-56" transform="translate(4.000000, 5.000000)" stroke="#FFFFFF"><g id="Group-55" transform="translate(0.000000, 4.500334)" stroke-linecap="round" stroke-linejoin="round"><path d="M5.44880866,17.2220584 L1.55791308,20.4928935 C1.27579941,20.7300492 0.881800578,20.7821914 0.547708386,20.6265849 C0.213616193,20.4709785 0,20.135834 0,19.7672814 L0,0.94793625 C0,0.424405515 0.424405515,0 0.94793625,0 L18.2699446,0 C18.2630429,1.16955917 18.6673004,2.19210926 19.4827174,3.06765029 C20.2981343,3.94319132 21.3873852,4.42787366 22.75047,4.52169731 L22.75047,16.1149162 C22.75047,16.638447 22.3260645,17.0628525 21.8025337,17.0628525 L5.88560939,17.0628525 L5.44880866,17.2220584 Z" id="Path"></path><line x1="7.58349" y1="6.63549569" x2="15.16698" y2="6.63549569" id="Path"></line><line x1="7.58349" y1="10.4272407" x2="15.16698" y2="10.4272407" id="Path"></line></g><g id="x-circle" transform="translate(18.259592, 0.000000)"><circle id="Oval" cx="4.50025812" cy="4.50025812" r="4.50025812"></circle><line x1="6.00034416" y1="3.00017208" x2="3.00017208" y2="6.00034416" id="Path" stroke-linecap="round" stroke-linejoin="round"></line><line x1="6.00034416" y1="6.00034416" x2="3.00017208" y2="3.00017208" id="Path" stroke-linecap="round" stroke-linejoin="round"></line></g></g></g></g></g></g></g></svg>